<svg width="20" height="20" viewBox="0 0 20 20" fill="none" xmlns="http://www.w3.org/2000/svg">
<g clip-path="url(#clip0_2014_26)">
<path d="M10 0.714285C11.8366 0.714285 13.6319 1.25888 15.1589 2.27921C16.6859 3.29954 17.8761 4.74977 18.5789 6.44651C19.2817 8.14325 19.4656 10.0103 19.1073 11.8116C18.749 13.6128 17.8646 15.2674 16.566 16.566C15.2674 17.8646 13.6128 18.749 11.8116 19.1073C10.0103 19.4656 8.14327 19.2817 6.44653 18.5789C4.74978 17.8761 3.29955 16.6859 2.27923 15.1589C1.2589 13.6318 0.714301 11.8365 0.714301 10C0.711357 7.33996 1.7348 4.78135 3.57144 2.85714" stroke="white" stroke-linecap="round" stroke-linejoin="round"/>
<path d="M0.714294 3.57143L3.57144 2.85714L4.28572 5.71429" stroke="white" stroke-linecap="round" stroke-linejoin="round"/>
<path d="M10 5V10.7143L13.7143 12.5714" stroke="white" stroke-linecap="round" stroke-linejoin="round"/>
</g>
<defs>
<clipPath id="clip0_2014_26">
<rect width="20" height="20" fill="white"/>
</clipPath>
</defs>
</svg>
