<svg width="20" height="20" viewBox="0 0 20 20" fill="none" xmlns="http://www.w3.org/2000/svg">
<g clip-path="url(#clip0_2030_165)">
<path d="M19.2857 9.88568C19.2719 11.473 18.911 13.0382 18.2285 14.4714" stroke="white" stroke-linecap="round" stroke-linejoin="round"/>
<path d="M9.99995 19.1714C8.78053 19.1714 7.57305 18.9312 6.44646 18.4646C5.31986 17.9979 4.29621 17.3139 3.43396 16.4517C1.69255 14.7103 0.714233 12.3484 0.714233 9.88568" stroke="white" stroke-linecap="round" stroke-linejoin="round"/>
<path d="M12.8571 12.7428L9.99995 9.17139H5.71423" stroke="white" stroke-linecap="round" stroke-linejoin="round"/>
<path d="M17.1429 18.4571C18.3263 18.4571 19.2857 17.4977 19.2857 16.3142C19.2857 15.1308 18.3263 14.1714 17.1429 14.1714C15.9594 14.1714 15 15.1308 15 16.3142C15 17.4977 15.9594 18.4571 17.1429 18.4571Z" stroke="white" stroke-linecap="round" stroke-linejoin="round"/>
<path d="M1.31421 6.45713C1.62554 5.67907 2.04386 4.94822 2.55707 4.28571" stroke="white" stroke-linecap="round" stroke-linejoin="round"/>
<path d="M5.31421 1.82855C6.11929 1.36367 6.99154 1.02634 7.89992 0.828552" stroke="white" stroke-linecap="round" stroke-linejoin="round"/>
<path d="M18.6856 6.45713C18.3743 5.67907 17.956 4.94822 17.4427 4.28571" stroke="white" stroke-linecap="round" stroke-linejoin="round"/>
<path d="M14.6857 1.82855C13.8806 1.36367 13.0084 1.02634 12.1 0.828552" stroke="white" stroke-linecap="round" stroke-linejoin="round"/>
</g>
<defs>
<clipPath id="clip0_2030_165">
<rect width="20" height="20" fill="white"/>
</clipPath>
</defs>
</svg>
