<svg width="20" height="20" viewBox="0 0 20 20" fill="none" xmlns="http://www.w3.org/2000/svg">
<g clip-path="url(#clip0_2030_142)">
<path d="M17.1429 14.9714C15.4834 14.9613 13.8564 14.51 12.4288 13.6638C11.0012 12.8176 9.82436 11.6069 9.01891 10.1559C8.21346 8.70494 7.80839 7.06585 7.84523 5.40671C7.88208 3.74757 8.35952 2.12808 9.2286 0.714294C6.93885 1.11627 4.88073 2.35621 3.45516 4.19258C2.02959 6.02896 1.33866 8.33024 1.51696 10.6482C1.69526 12.9661 2.73002 15.1346 4.41968 16.7314C6.10934 18.3281 8.33288 19.2387 10.6572 19.2857C12.2473 19.2898 13.8116 18.8829 15.1982 18.1045C16.5849 17.326 17.7468 16.2025 18.5715 14.8429C18.0991 14.9209 17.6216 14.9639 17.1429 14.9714V14.9714Z" stroke="white" stroke-linecap="round" stroke-linejoin="round"/>
</g>
<defs>
<clipPath id="clip0_2030_142">
<rect width="20" height="20" fill="white"/>
</clipPath>
</defs>
</svg>
